<svg xmlns="http://www.w3.org/2000/svg" xmlns:xlink="http://www.w3.org/1999/xlink" xmlns:lucid="lucid" width="245" height="238"><g transform="translate(-588 -1107)" lucid:page-tab-id="0_0"><path d="M820 1301.4c0 16.58-13.43 30-30 30s-30-13.42-30-30c0-16.56 13.43-30 30-30s30 13.44 30 30z" stroke="#ced4db" fill="#fff"/><path d="M660 1301.4c0 16.58-13.43 30-30 30s-30-13.42-30-30c0-16.56 13.43-30 30-30s30 13.44 30 30z" stroke="#ced4db" fill="#4c535d"/><path d="M739.33 1150c0 16.57-13.43 30-30 30s-30-13.43-30-30 13.43-30 30-30 30 13.43 30 30z" stroke="#ced4db" fill="#fff"/><path d="M786.65 1301.3a3.7 3.7 0 0 1-3.32 5.37h-148a3.7 3.7 0 0 1-3.3-5.37l74.62-149.27a3 3 0 0 1 5.37 0z" stroke="#0ffe87" stroke-width="5" fill-opacity="0"/><path d="M669.33 1208.08a6 6 0 0 1 6-6h68a6 6 0 0 1 6 6v57.33a6 6 0 0 1-6 6h-68a6 6 0 0 1-6-6z" stroke="#000" stroke-opacity="0" fill="#fff" fill-opacity="0"/><use xlink:href="#a" transform="matrix(1,0,0,1,674.3333333333335,1207.0779330792045) translate(8.328993055555603 71.09374999999987)"/><defs><path fill="#0ffe87" d="M473-1349c438-1 655 221 652 661C1122-268 945-8 532 0H162v-1349h311zm42 1193c308-4 416-205 418-532 2-330-131-509-459-505H353v1037h162" id="b"/><use transform="matrix(0.0434027777777777,0,0,0.0434027777777777,0,0)" xlink:href="#b" id="a"/></defs></g></svg>